<svg clip-rule="evenodd" fill-rule="evenodd" stroke-linejoin="round" stroke-miterlimit="2" viewBox="0 0 64 64" xmlns="http://www.w3.org/2000/svg"><path d="m-64-192h1280v800h-1280z" fill="none"/><path    fill="#A020F0"     d="m32.024 25.217c3.793 0 6.872 3.079 6.872 6.872 0 3.792-3.079 6.871-6.872 6.871-3.792 0-6.871-3.079-6.871-6.871 0-3.793 3.079-6.872 6.871-6.872zm0 4c1.585 0 2.872 1.287 2.872 2.872 0 1.584-1.287 2.871-2.872 2.871-1.584 0-2.871-1.287-2.871-2.871 0-1.585 1.287-2.872 2.871-2.872z"/> <path d="m22.126 24.971-.026-.027 7.106-7.105-7.106-7.106 2.758-2.759 7.106 7.106 7.106-7.106 2.759 2.759-7.106 7.106 7.106 7.105-.023.024 4.316 4.317 7.106-7.106 2.759 2.758-7.106 7.106 7.106 7.106-2.759 2.759-7.106-7.106-4.24 4.24.006.007-7.106 7.106 7.106 7.106-2.758 2.758-7.106-7.106-7.106 7.106-2.759-2.758 7.106-7.106-7.106-7.106.002-.002-4.296-4.297-7.106 7.106-2.759-2.758 7.106-7.106-7.106-7.106 2.759-2.759 7.106 7.106zm5.576-.112.027.027-7.106 7.106 7.106 7.106-.002.002 4.297 4.296 4.24-4.241-.006-.006 7.106-7.106-7.106-7.106.023-.023-4.317-4.317z"/><path fill="#A020F0" d="m22.126 24.971-.026-.027 7.106-7.105-7.106-7.106 2.758-2.759 7.106 7.106 7.106-7.106 2.759 2.759-7.106 7.106 7.106 7.105-.023.024 4.316 4.317 7.106-7.106 2.759 2.758-7.106 7.106 7.106 7.106-2.759 2.759-7.106-7.106-4.24 4.24.006.007-7.106 7.106 7.106 7.106-2.758 2.758-7.106-7.106-7.106 7.106-2.759-2.758 7.106-7.106-7.106-7.106.002-.002-4.296-4.297-7.106 7.106-2.759-2.758 7.106-7.106-7.106-7.106 2.759-2.759 7.106 7.106zm5.576-.112.027.027-7.106 7.106 7.106 7.106-.002.002 4.297 4.296 4.24-4.241-.006-.006 7.106-7.106-7.106-7.106.023-.023-4.317-4.317z"/></svg>