<?xml version="1.0" standalone="no"?>
<!DOCTYPE svg PUBLIC "-//W3C//DTD SVG 20010904//EN"
 "http://www.w3.org/TR/2001/REC-SVG-20010904/DTD/svg10.dtd">
<svg version="1.0" xmlns="http://www.w3.org/2000/svg"
 width="128.000000pt" height="128.000000pt" viewBox="0 0 128.000000 128.000000"
 preserveAspectRatio="xMidYMid meet">

<g transform="translate(0.000000,128.000000) scale(0.100000,-0.100000)"
fill="#A020F0" stroke="none">
<path d="M558 1269 c-253 -32 -468 -223 -533 -474 -21 -78 -21 -232 0 -310 29
-112 82 -203 164 -286 90 -89 172 -138 295 -173 449 -130 894 300 776 752 -63
241 -241 423 -465 476 -84 20 -159 25 -237 15z m-78 -259 l0 -130 160 0 160 0
0 130 0 130 40 0 40 0 0 -130 0 -130 130 0 130 0 0 -40 0 -40 -130 0 -130 0 0
-160 0 -160 130 0 130 0 0 -40 0 -40 -130 0 -130 0 0 -130 0 -130 -40 0 -40 0
0 130 0 130 -160 0 -160 0 0 -130 0 -130 -40 0 -40 0 0 130 0 130 -130 0 -130
0 0 40 0 40 130 0 130 0 0 160 0 160 -130 0 -130 0 0 40 0 40 130 0 130 0 0
130 0 130 40 0 40 0 0 -130z m137 88 c35 -33 33 -112 -4 -150 l-27 -28 -23 22
-23 22 27 28 27 28 -29 30 c-28 29 -28 30 -10 50 23 25 33 25 62 -2z m462
-346 c37 -19 71 -72 71 -112 0 -64 -67 -130 -133 -130 -93 0 -155 106 -112
191 33 63 109 85 174 51z m-439 -491 c0 -35 -6 -51 -27 -73 l-27 -28 -23 22
-23 22 27 28 27 28 -27 28 -27 28 22 22 22 22 28 -27 c23 -22 28 -36 28 -72z"/>
<path d="M480 640 l0 -160 160 0 160 0 0 160 0 160 -160 0 -160 0 0 -160z
m221 115 c89 -47 89 -183 0 -230 -61 -31 -136 -11 -171 48 -68 111 55 242 171
182z"/>
<path d="M602 678 c-7 -7 -12 -24 -12 -38 0 -33 17 -50 50 -50 33 0 50 17 50
50 0 14 -5 31 -12 38 -15 15 -61 15 -76 0z"/>
<path d="M974 665 c-15 -23 -15 -27 0 -50 11 -17 26 -25 44 -25 35 0 52 16 52
50 0 34 -17 50 -52 50 -18 0 -33 -8 -44 -25z"/>
</g>
</svg>
